<?xml version="1.0" encoding="UTF-8" standalone="no"?>
<!-- Created with Inkscape (http://www.inkscape.org/) -->

<svg
   width="3840"
   height="2160"
   viewBox="0 0 3840 2160"
   version="1.1"
   id="svg1"
   xml:space="preserve"
   inkscape:version="1.4.2 (ebf0e940, 2025-05-08)"
   sodipodi:docname="logow.svg"
   inkscape:export-filename="logob.png"
   inkscape:export-xdpi="96"
   inkscape:export-ydpi="96"
   xmlns:inkscape="http://www.inkscape.org/namespaces/inkscape"
   xmlns:sodipodi="http://sodipodi.sourceforge.net/DTD/sodipodi-0.dtd"
   xmlns="http://www.w3.org/2000/svg"
   xmlns:svg="http://www.w3.org/2000/svg"><sodipodi:namedview
     id="namedview1"
     pagecolor="#ffffff"
     bordercolor="#000000"
     borderopacity="0.25"
     inkscape:showpageshadow="2"
     inkscape:pageopacity="0.0"
     inkscape:pagecheckerboard="0"
     inkscape:deskcolor="#d1d1d1"
     inkscape:document-units="px"
     inkscape:zoom="0.25823623"
     inkscape:cx="1947.8289"
     inkscape:cy="906.14705"
     inkscape:window-width="1440"
     inkscape:window-height="773"
     inkscape:window-x="0"
     inkscape:window-y="25"
     inkscape:window-maximized="0"
     inkscape:current-layer="layer1" /><defs
     id="defs1" /><g
     inkscape:label="Layer 1"
     inkscape:groupmode="layer"
     id="layer1"><path
       style="fill:#ffffff;fill-opacity:1"
       d="m 1060.2338,1253.2684 c -61.69174,-0.2951 -112.49164,-0.8614 -112.88864,-1.2585 -0.397,-0.3971 0.3531,-1.1361 1.6669,-1.6421 1.3138,-0.506 5.3137,-2.0536 8.8887,-3.4391 7.7357,-2.9978 18.9424,-7.0317 24.5,-8.8188 2.2,-0.7075 4.25101,-1.4803 4.90246,-1.6808 1.62782,-0.501 1.32371,-0.4104 3.17024,-1.0123 1.28731,-0.4196 2.38096,-0.8388 2.98946,-1.0574 0.77264,-0.2775 1.70385,-0.5852 3.00353,-1.0962 1.21925,-0.4793 2.31827,-0.8674 2.92388,-1.0938 0.99687,-0.3727 1.78857,-0.6594 3.02077,-1.1043 1.2997,-0.4693 2.4345,-0.8301 3.0417,-1.0522 0.8196,-0.2997 1.5415,-0.548 2.5622,-0.8852 1.294,-0.4276 2.6454,-0.9145 3.6702,-1.229 1.9405,-0.5954 10.2696,-3.1353 19.2155,-5.6366 2.475,-0.692 5.4997,-1.6765 6.6423,-1.9977 1.8539,-0.5212 2.8998,-0.7848 4.2578,-1.1369 1.4258,-0.3697 4.3687,-1.309 6.4312,-1.8972 9.8853,-2.8195 11.4212,-3.1942 14.9187,-4.0649 10.4661,-2.6054 12.5765,-3.1155 16.5,-3.9882 24.7909,-5.5142 20.641,-4.6867 47.25,-9.4219 26.8287,-4.7742 47.3921,-7.71 81.5,-11.6355 19.4874,-2.2428 79.7995,-2.8868 391.3123,-3.8826 633.1434,-2.0239 816.7649,-3.3151 850.5,-5.9807 29.1312,-2.3017 54.0256,-5.6876 73.75,-10.0308 2.6125,-0.5752 6.6625,-1.4563 9,-1.9579 8.4692,-1.8174 23.927,-6.1526 34.25,-9.6057 12.3074,-4.1168 20.951,-7.4161 29.75,-11.3556 2.6125,-1.1697 6.8875,-3.0759 9.5,-4.2361 2.6125,-1.1602 5.65,-2.5955 6.75,-3.1895 1.1,-0.594 3.8,-1.9118 6,-2.9285 2.2,-1.0166 5.125,-2.5194 6.5,-3.3395 1.375,-0.8201 5.4896,-3.0346 9.1436,-4.9211 13.9285,-7.191 60.9064,-38.6001 77.0093,-51.4878 3.1091,-2.4883 10.0132,-7.8992 15.3425,-12.0242 9.2861,-7.1878 21.7814,-17.2091 26.0046,-20.8559 1.1,-0.9498 4.25,-3.5027 7,-5.673 2.75,-2.1703 5.9,-4.8624 7,-5.9823 1.1,-1.1199 2.9382,-2.7006 4.085,-3.5125 2.3368,-1.6546 8.0436,-6.4859 22.4151,-18.9763 5.3791,-4.675 12.161,-10.52501 15.0709,-13.00001 2.9099,-2.475 6.8968,-5.92057 8.8599,-7.65683 6.9742,-6.16855 23.9297,-20.9114 29.1467,-25.34317 2.9135,-2.475 7.1255,-6.07934 9.3599,-8.00964 3.5134,-3.03531 11.7719,-9.8577 16.5625,-13.68241 11.8722,-9.47858 23.4181,-16.47795 32.7869,-19.87617 5.5791,-2.0236 8.5562,-2.43178 17.7363,-2.43178 8.3662,0 11.5688,0.37615 13.2543,1.5567 3.1666,2.21801 2.164,5.76498 -0.7775,10.28216 -1.2985,1.99401 -2.7776,3.67559 -3,4.00062 -0.2781,0.40646 -0.9955,1.2309 -1.8189,2.20841 -0.8278,0.98264 -4.6749,4.94369 -8.3341,9.02732 -3.6591,4.08363 -13.0108,13.94979 -20.7814,21.92479 -7.7707,7.975 -20.9769,21.63874 -29.3471,30.36386 -8.3702,8.72515 -20.056,20.84855 -25.9685,26.94085 -5.9125,6.0924 -10.75,11.1275 -10.75,11.1893 0,0.062 -4.6125,4.8819 -10.25,10.7114 -5.6375,5.8296 -16.1,16.7684 -23.25,24.3085 -7.15,7.5402 -18.9625,19.8277 -26.25,27.3057 -7.2875,7.4779 -13.25,13.6706 -13.25,13.7613 0,0.4977 -43.5575,43.5905 -47.6418,47.1335 -26.6148,23.0876 -56.8608,41.7089 -93.8582,57.7848 -2.2,0.9559 -5.35,2.3271 -7,3.047 -14.5521,6.3493 -46.2489,16.2312 -67,20.888 -18.3386,4.1155 -32.8713,6.6905 -54.5,9.6566 -4.125,0.5657 -21.675,1.46 -39,1.9873 -34.4492,1.0486 -1206.1549,1.9065 -1393.4792,1.0105 z m 115.1669,-131.1287 c -40.4611,-1.4205 -40.5574,-1.4344 -63.6189,-9.1923 -16.5424,-5.5649 -29.3435,-12.2254 -45.5003,-23.674 -7.0625,-5.0046 -8.7039,-6.7096 -7.8262,-8.1299 0.6097,-0.9865 34.0148,-1.1578 162.8147,-0.4308 238.9411,1.3488 791.8128,1.1269 868.943,-0.3784 80.579,-1.5727 113.5209,-2.6449 141.5,-4.6057 47.2317,-3.31 75.6793,-6.8323 101.5,-12.5676 2.75,-0.6108 7.1094,-1.4266 9.1429,-1.8975 2.347,-0.5435 3.5915,-0.9135 4.3062,-1.1021 1.5946,-0.4208 0.9519,-0.1968 2.6213,-0.7904 4.3142,-1.5339 30.8726,-9.8308 40.9296,-14.9306 1.65,-0.8367 4.7313,-2.3943 6.8474,-3.4613 23.1929,-11.6952 43.5804,-29.338 87.6526,-75.85182 29.7315,-31.37866 38.1085,-38.37954 51.1313,-42.73146 9.0942,-3.0391 23.8322,-3.14536 28.6523,-0.20657 1.806,1.10109 2.7948,2.6387 3.111,3.46257 0.789,2.05623 -2.2126,9.07388 -6.9431,15.03505 -4.3666,5.50246 -19.7846,20.12973 -23.0629,23.32317 -6.1202,5.96176 -59.1195,59.13266 -61.8886,61.89706 -1.5679,1.5653 -2.025,2.3503 -4.5,4.8253 -2.475,2.475 -4.5,4.6883 -4.5,4.9185 0,0.766 -18.5943,18.542 -21.9343,21.4111 -1.8997,1.6318 -4.4451,3.7418 -6.5099,5.4476 -4.7595,3.9319 -27.0481,18.6681 -35.072,22.542 -3.8411,1.8544 -8.659,4.3375 -10.8283,5.25 -2.4559,1.033 -4.0442,1.6191 -5.3383,2.0821 -1.1503,0.4115 -0.6324,0.2068 -2.4509,0.8124 -0.657,0.2188 -3.4132,1.143 -5.8663,1.9238 -2.5603,0.815 -5.3653,1.7503 -6.5,2.0986 -1.3134,0.4031 -3.061,0.8888 -4.5,1.3164 -1.3448,0.3996 -4.3,1.017 -6.5,1.6418 -7.5181,2.1353 -17.203,4.3884 -25.5,5.9323 -15.9372,2.9657 -22.8502,4.1034 -33.5,5.5131 -6.6,0.8737 -15.15,2.0096 -19,2.5242 -6.3687,0.8513 -16.85,1.9912 -33,3.5891 -15.2814,1.512 -35.3384,2.6672 -62,3.5711 -35.6828,1.2097 -979.8628,1.99 -1012.8123,0.8332 z m 1452.3123,-41.9432 c -2.475,-0.2842 -5.9625,-1.4012 -7.75,-2.4823 -2.8187,-1.7048 -3.2453,-2.501 -3.2146,-6 0.041,-4.7195 3.1009,-9.6028 12.9646,-20.6925 8.4499,-9.5001 18.9515,-20.3896 75.75,-78.54728 8.9375,-9.15138 16.25,-16.75641 16.25,-16.90008 0,-0.2226 9.1045,-9.07431 19.0925,-18.56244 4.8253,-4.58383 11.1729,-8.46749 17.4741,-10.69119 5.1029,-1.80083 8.3121,-2.14092 20.2029,-2.14092 16.2882,0 19.2305,0.8058 19.2305,5.26661 0,4.62345 -6.5797,12.18732 -24,27.59001 -12.8127,11.3287 -20.8493,19.05136 -37.9653,36.48211 -27.8103,28.32168 -51.3946,51.90518 -57.1631,57.16128 -30.3205,27.6271 -36.434,31.1743 -50.8716,29.5167 z m -108.5607,-3.4048 c -8.6993,-1.9114 -14.3495,-6.7897 -14.406,-12.4379 -0.025,-2.4581 1.1996,-4.9368 4.692,-9.5 7.7588,-10.1374 38.2489,-37.4397 44.1013,-43.6112 2.2816,-2.406 2.1646,-2.0112 3.4663,-3.341 2.7607,-2.8203 64.8275,-67.77347 76.8339,-76.70121 14.5372,-10.80972 20.3658,-13.0009 34.4284,-13.00019 9.8057,4.9e-4 15.6649,1.2025 18.8838,3.87398 1.8042,1.49729 1.2751,3.91676 0.6162,5.59641 -0.3456,0.88095 -0.3932,1.1926 -1,2.20603 -1.3546,2.26229 -6.465,9.84495 -27.0282,30.30317 -17.4056,17.31671 -27.2887,26.76456 -54.9182,52.50001 -10.7421,10.0058 -37.2113,36.6553 -46.6088,46.9266 -9.9761,10.9035 -15.8016,15.2405 -22.9845,17.1114 -6.3333,1.6496 -8.8523,1.6612 -16.0762,0.074 z M 1407.713,971.05993 c -38.775,-0.36245 -73.65,-1.07724 -77.5,-1.5884 -13.0255,-1.72939 -30.3779,-10.36968 -39.8514,-19.84316 -2.776,-2.77597 -5.0172,-4.95157 -6.7578,-6.98532 l -1.8428,-2.11426 194.952,-1.8139 c 215.8723,-2.00855 286.702,1.11449 355.5,5.39497 96.3534,5.99493 116.5,8.33192 116.5,13.51386 0,5.37816 -5.9053,7.98496 -22,9.71166 -35.9421,3.85597 -301.2563,5.75999 -519,3.72459 z M 2725.3569,878.4904 c -2.9234,-0.0404 -203.6293,-2.48612 -858.6439,-3.36852 -634.1216,-0.85425 -814.4517,-1.83288 -831.3501,-3.55009 -2.566,-0.26075 -6.5111,-1.21799 -7.2717,-1.38142 -1.3853,-0.29761 -1.1896,-0.24879 -2.9689,-0.66124 -2.3027,-0.53376 -2.559,-0.50502 -5.4662,-1.31085 -4.3319,-1.20073 -4.8172,-1.37559 -8.2971,-2.625 -16.72127,-6.00355 -31.89785,-12.24714 -55.05625,-27.70205 -13.9938,-9.33886 -17.5599,-12.14863 -16.3079,-12.84928 1.8107,-1.01333 914.15505,-1.29878 1160.71815,-0.36316 286.3661,1.08666 351.3918,2.86595 566.5,15.501 31.6023,1.85626 53.2929,3.08867 70.5,4.00564 9.625,0.51292 26.275,1.41211 37,1.99821 35.8124,1.95706 81.5899,4.22075 120,5.93397 52.5524,2.34402 88.2226,4.64387 89.7976,5.43709 0.6943,0.34969 1.2024,1.29649 1.2024,1.97282 0,1.3152 -10.0054,6.72649 -11.8122,7.65227 -0.9628,0.49332 -0.6759,0.36267 -2.0957,0.95644 -5.9582,2.49174 -21.1524,7.6428 -36.5921,9.21145 -7.7059,0.78291 -208.1839,1.16582 -209.8561,1.14272 z"
       id="path1"
       sodipodi:nodetypes="ssssssssssssssssscssssssssssssssssssssssssssssssssssssssssssssssssssssssssssssscssssssssssssssssssssssssssssssssssssssssssssssssssssssssssscssssssssssssssssssssssssss" /></g></svg>
