<?xml version="1.0" encoding="UTF-8" standalone="no"?>
<!-- Created with Inkscape (http://www.inkscape.org/) -->

<svg
   width="3840"
   height="2160"
   viewBox="0 0 3840 2160"
   version="1.1"
   id="svg1"
   xml:space="preserve"
   inkscape:version="1.4.2 (ebf0e940, 2025-05-08)"
   sodipodi:docname="neptunew.svg"
   xmlns:inkscape="http://www.inkscape.org/namespaces/inkscape"
   xmlns:sodipodi="http://sodipodi.sourceforge.net/DTD/sodipodi-0.dtd"
   xmlns="http://www.w3.org/2000/svg"
   xmlns:svg="http://www.w3.org/2000/svg"><sodipodi:namedview
     id="namedview1"
     pagecolor="#ffffff"
     bordercolor="#000000"
     borderopacity="0.25"
     inkscape:showpageshadow="2"
     inkscape:pageopacity="0.0"
     inkscape:pagecheckerboard="0"
     inkscape:deskcolor="#d1d1d1"
     inkscape:document-units="px"
     inkscape:zoom="0.13488561"
     inkscape:cx="1482.7379"
     inkscape:cy="392.92553"
     inkscape:window-width="1440"
     inkscape:window-height="773"
     inkscape:window-x="0"
     inkscape:window-y="25"
     inkscape:window-maximized="0"
     inkscape:current-layer="layer1" /><defs
     id="defs1" /><g
     inkscape:label="Layer 1"
     inkscape:groupmode="layer"
     id="layer1"
     style="fill:#ffffff;fill-opacity:1"><path
       style="fill:#ffffff;fill-opacity:1"
       d="M 1444.1916,1214.2856 V 981.28562 h 20.5 20.5 v 20.99998 c 0,16.164 0.2879,20.9868 1.25,20.9425 0.6875,-0.032 3.5,-2.9952 6.25,-6.5857 12.8775,-16.81322 34.146,-31.91932 54.8899,-38.98574 21.2753,-7.24746 49.9996,-7.24818 71.2455,-0.002 42.4013,14.4618 73.2588,52.12714 82.0328,100.13074 1.6378,8.9609 1.8277,16.183 1.8277,69.5 0,53.6996 -0.1809,60.4749 -1.8558,69.5 -8.0251,43.244 -33.1033,77.71 -69.2521,95.1762 -6.1115,2.9529 -15.5615,6.5649 -21,8.0266 -8.9254,2.3989 -11.5916,2.6576 -27.388,2.6576 -15.7757,0 -18.4693,-0.2606 -27.3372,-2.6447 -24.0527,-6.4666 -49.439,-23.4464 -63.6628,-42.5815 -2.475,-3.3296 -5.0625,-6.0719 -5.75,-6.094 -0.9908,-0.032 -1.25,18.205 -1.25,87.9598 v 88 h -20.5 -20.5 z m 150.5,67.9547 c 29.2,-7.6157 52.2522,-30.1723 61.7828,-60.4547 4.4254,-14.0611 4.9026,-22.6526 4.4991,-81 l -0.3735,-54 -2.5861,-9.5115 c -4.7754,-17.5635 -11.5346,-29.7479 -23.2163,-41.8507 -16.8451,-17.4524 -37.1649,-26.136 -61.106,-26.1134 -12.876,0.012 -21.3537,1.6079 -31.928,6.01 -20.9851,8.7362 -38.1562,24.9581 -48.1257,45.4656 -7.9762,16.4074 -7.7758,14.3932 -8.1844,82.2659 -0.3096,51.4115 -0.1321,61.6032 1.208,69.3684 3.6065,20.8987 15.8132,40.3947 33.7576,53.9162 12.4293,9.3657 26.9189,15.7716 40.5758,17.9387 8.3703,1.3282 24.5489,0.3514 33.6967,-2.0345 z m -430.5,39.9914 c -69.0991,-4.5075 -114.2588,-48.1132 -124.5105,-120.2259 -1.7726,-12.4689 -2.1034,-93.3321 -0.4367,-106.7464 8.1257,-65.3983 45.4372,-108.47125 104.8315,-121.019 12.6365,-2.66961 37.1163,-3.63488 51.1157,-2.01555 59.8233,6.91981 99.6968,42.32035 114.3934,101.56075 3.2793,13.2188 4.6623,27.5416 5.2866,54.75 l 0.6367,27.75 h -118.1584 -118.1583 v 8.75 c 0.01,21.436 3.8756,45.2434 9.8681,60.75 5.2808,13.665 11.4463,23.0587 22.0119,33.5374 8.3307,8.2622 11.0205,10.2373 20.1165,14.7723 16.2416,8.0974 22.9533,9.542 44.5001,9.5779 20.2721,0.034 28.3397,-1.4808 42.3398,-7.9492 14.2958,-6.6051 28.6821,-19.305 36.5612,-32.2755 l 3.7438,-6.1629 h 22.995 22.995 l -0.6849,2.25 c -1.8229,5.9887 -8.1526,18.1154 -14.187,27.1797 -25.9804,39.0256 -71.153,59.0461 -125.2629,55.5164 z m 108.5645,-209.6961 c -4.0383,-46.6759 -22.0312,-78.469 -53.2679,-94.123 -3.4119,-1.7098 -10.1619,-4.3309 -15,-5.8246 -8.2946,-2.5608 -9.9094,-2.7158 -28.2966,-2.7158 -18.3831,0 -20.0034,0.1554 -28.2884,2.7134 -40.8889,12.6247 -63.3165,45.6634 -68.1881,100.45 l -0.6446,7.25 h 97.178 97.1781 z m 721.9355,209.6525 c -11.9208,-1.4431 -27.8745,-5.2527 -38.1325,-9.1057 -15.2455,-5.7265 -23.71,-11.1393 -34.8675,-22.2968 -11.5205,-11.5205 -16.9891,-20.2612 -22.1114,-35.342 -5.6443,-16.6175 -6.3886,-25.3992 -6.3886,-75.3716 0,-24.4514 -0.2987,-70.1775 -0.6637,-101.6138 l -0.6637,-57.1567 -58.5863,-0.258 -58.5863,-0.2579 -0.2711,-19.75 -0.2712,-19.74998 h 59.0212 59.0211 v -49.5 -49.5 h 21.5 21.5 v 49.5 49.5 h 59.5 59.5 v 19.99998 20 h -59.5402 -59.5402 l 0.333,101.25 c 0.3305,100.4695 0.35,101.3135 2.5228,109.4903 3.3621,12.6521 8.3621,21.6288 16.6125,29.8249 8.1459,8.0922 14.5532,11.9976 26.6226,16.2271 27.396,9.6005 69.6133,9.1477 112.4403,-1.2059 l 9.5906,-2.3186 -0.2707,19.5996 -0.2707,19.5995 -11.5,2.1932 c -31.2401,5.9578 -75.3042,8.8082 -96.5,6.2424 z m 1102.4322,0.073 c -57.6184,-4.286 -99.0853,-35.4286 -116.51,-87.5016 -8.4294,-25.191 -9.7369,-38.7803 -9.138,-94.9738 0.4174,-39.1536 0.6994,-45.2303 2.5605,-55.1696 11.3668,-60.7067 49.2398,-100.31994 106.1553,-111.03308 14.5081,-2.73084 47.8753,-2.45898 61.6041,0.50192 49.1044,10.59046 81.9237,39.91196 97.3594,86.98316 6.5356,19.93 8.1855,32.3334 8.7752,65.9676 l 0.5129,29.25 h -117.6258 -117.6258 v 13.75 c 0,16.4951 1.3558,28.5016 4.6368,41.1642 9.7131,37.4871 32.6091,61.9901 65.5425,70.1427 16.8388,4.1684 40.7823,3.6474 56.7043,-1.2337 20.0576,-6.1491 39.4609,-21.4348 49.1961,-38.7561 l 2.2858,-4.0671 h 23.2648 23.2648 l -1.5657,3.75 c -17.2377,41.2858 -48.6745,68.2014 -90.7659,77.7123 -15.2206,3.4392 -32.6762,4.7001 -48.6341,3.5131 z M 3206.1916,1115.82 c 0,-7.5493 -2.9571,-26.1625 -5.6127,-35.3284 -5.5415,-19.127 -12.8301,-32.5046 -24.1852,-44.3898 -11.697,-12.2432 -23.8086,-19.4713 -40.1809,-23.9796 -10.8093,-2.9764 -34.2708,-3.6694 -46.4966,-1.3733 -40.6329,7.6312 -67.7872,39.4503 -74.9745,87.8541 -0.8526,5.7416 -1.5501,12.969 -1.5501,16.061 v 5.6216 h 96.5 96.5 z M 668.19156,1146.2856 V 978.28562 h 21 21 v 24.99998 c 0,19.3444 0.28278,24.9953 1.25,24.9793 0.6875,-0.011 2.96478,-2.7104 5.06063,-5.9976 4.93171,-7.7353 18.11372,-21.6333 26.55434,-27.99684 8.51946,-6.42294 23.43122,-14.08389 33.65869,-17.29222 12.29063,-3.85554 22.601,-5.0003 39.76418,-4.41501 18.63705,0.63555 28.19363,2.82529 42.30851,9.69436 29.41449,14.31469 46.93916,40.10151 55.0664,81.02801 1.51472,7.6277 1.72549,20.9435 2.0538,129.75 l 0.36585,121.25 h -20.50188 -20.50189 l -0.36175,-115.75 c -0.31565,-101 -0.56465,-116.7361 -1.95397,-123.4885 -6.95566,-33.8061 -22.99885,-53.2232 -50.30798,-60.8878 -10.53919,-2.958 -30.48647,-3.174 -40.87047,-0.4427 -33.93229,8.9252 -58.66858,34.0365 -68.41289,69.4501 l -2.64671,9.6189 -0.29562,110.75 -0.29562,110.75 h -20.96681 -20.96681 z m 1632.05814,166.9497 c -46.3126,-5.8101 -77.2622,-37.5282 -87.2826,-89.4497 -2.0735,-10.744 -2.1316,-13.6934 -2.4958,-126.75 l -0.3728,-115.74998 h 21.0465 21.0466 v 106.24998 c 0,71.3187 0.3654,109.2089 1.1057,115.25 3.9529,32.2565 16.7877,53.6697 38.3505,63.9829 12.7216,6.0846 17.4979,7.0304 35.041,6.9386 13.5953,-0.071 15.796,-0.3396 23.5,-2.8674 15.2341,-4.9987 25.1564,-10.8072 35.8672,-20.9968 14.9345,-14.2077 23.1761,-28.9309 28.8604,-51.5573 1.4469,-5.7594 1.6738,-18.4913 1.9915,-111.75 l 0.3586,-105.24998 h 20.9611 20.964 v 166.49998 166.5 h -21 -21 v -30.5 c 0,-16.775 -0.3375,-30.4843 -0.75,-30.465 -0.4125,0.019 -3.225,3.9258 -6.25,8.6813 -11.2419,17.673 -32.2165,35.6079 -50.587,43.2555 -17.7067,7.3713 -40.1471,10.3875 -59.3549,7.9779 z m 301.9419,-166.9497 V 978.28562 h 20.5 20.5 v 24.99998 c 0,19.9436 0.2649,25 1.31,25 0.7204,0 3.3079,-3.0354 5.75,-6.7453 5.9885,-9.0977 20.6742,-23.71847 30.3568,-30.22271 10.5235,-7.06902 22.5303,-12.58857 34.3774,-15.80323 8.9457,-2.4274 11.272,-2.6357 29.7058,-2.65996 17.8047,-0.0234 20.9269,0.2261 28.4445,2.27338 18.4883,5.03501 31.1893,12.20575 43.5984,24.61491 16.8226,16.82251 27.7762,41.64011 31.3558,71.04291 0.7367,6.0512 1.0966,47.4161 1.0985,126.25 v 117.25 h -20.5 -20.5 v -112.1217 c 0,-122.8539 -0.034,-123.6533 -5.9439,-142.0325 -4.0292,-12.5294 -9.2154,-21.1723 -17.9711,-29.949 -13.0262,-13.0575 -27.3011,-18.3074 -49.585,-18.2359 -15.6676,0.05 -24.4737,2.0912 -38.2214,8.8585 -29.315,14.4317 -48.2758,42.5282 -52.2845,77.4806 -0.5717,4.985 -0.9783,51.4043 -0.9831,112.25 l -0.01,103.75 h -20.5 -20.5 z"
       id="path1"
       sodipodi:nodetypes="ccccsssssssssssssssccccssscsssssssssscssssssccccsssssscccssccsssssscccssssssscccccccccccccccccccssssscccsscssssssscccssssscccssccssssssscccsccccscssssssscccsssssccccccssscccsssssssscccccccsssssccccsssssssssccccsssscsccccc" /><circle
       style="fill:#ffffff;stroke-width:1.00157;fill-opacity:1"
       id="path2"
       cx="2369.0103"
       cy="947.83734"
       r="22" /><circle
       style="fill:#ffffff;stroke-width:1.00157;fill-opacity:1"
       id="path2-4"
       cx="2300.0398"
       cy="947.7644"
       r="22" /></g></svg>
